<svg width="24" height="24" viewBox="0 0 24 24" fill="none" xmlns="http://www.w3.org/2000/svg">
  <path d="M15.536 11.293C15.3485 11.4805 15.2432 11.7348 15.2432 12C15.2432 12.2652 15.3485 12.5195 15.536 12.707L17.912 15.084C18.0995 15.2715 18.3538 15.3768 18.619 15.3768C18.8842 15.3768 19.1385 15.2715 19.326 15.084L21.703 12.707C21.8905 12.5195 21.9958 12.2652 21.9958 12C21.9958 11.7348 21.8905 11.4805 21.703 11.293L19.326 8.916C19.1385 8.72853 18.8842 8.62321 18.619 8.62321C18.3538 8.62321 18.0995 8.72853 17.912 8.916L15.536 11.293Z" stroke="#22D3EE" stroke-width="2" stroke-linecap="round" stroke-linejoin="round"/>
  <path d="M2.297 11.293C2.10953 11.4805 2.00421 11.7348 2.00421 12C2.00421 12.2652 2.10953 12.5195 2.297 12.707L4.674 15.084C4.86153 15.2715 5.11584 15.3768 5.381 15.3768C5.64616 15.3768 5.90047 15.2715 6.088 15.084L8.465 12.707C8.65247 12.5195 8.75779 12.2652 8.75779 12C8.75779 11.7348 8.65247 11.4805 8.465 11.293L6.088 8.916C5.90047 8.72853 5.64616 8.62321 5.381 8.62321C5.11584 8.62321 4.86153 8.72853 4.674 8.916L2.297 11.293Z" stroke="#22D3EE" stroke-width="2" stroke-linecap="round" stroke-linejoin="round"/>
  <path d="M8.916 17.912C8.82302 18.0049 8.74926 18.1152 8.69894 18.2366C8.64862 18.358 8.62271 18.4881 8.62271 18.6195C8.62271 18.7509 8.64862 18.881 8.69894 19.0024C8.74926 19.1238 8.82302 19.2341 8.916 19.327L11.293 21.703C11.4805 21.8905 11.7348 21.9958 12 21.9958C12.2652 21.9958 12.5195 21.8905 12.707 21.703L15.084 19.327C15.177 19.2341 15.2507 19.1238 15.3011 19.0024C15.3514 18.881 15.3773 18.7509 15.3773 18.6195C15.3773 18.4881 15.3514 18.358 15.3011 18.2366C15.2507 18.1152 15.177 18.0049 15.084 17.912L12.707 15.536C12.5195 15.3485 12.2652 15.2432 12 15.2432C11.7348 15.2432 11.4805 15.3485 11.293 15.536L8.916 17.912Z" stroke="#22D3EE" stroke-width="2" stroke-linecap="round" stroke-linejoin="round"/>
  <path d="M8.916 4.674C8.72853 4.86153 8.62321 5.11584 8.62321 5.381C8.62321 5.64616 8.72853 5.90047 8.916 6.088L11.293 8.464C11.4805 8.65147 11.7348 8.75679 12 8.75679C12.2652 8.75679 12.5195 8.65147 12.707 8.464L15.084 6.088C15.2715 5.90047 15.3768 5.64616 15.3768 5.381C15.3768 5.11584 15.2715 4.86153 15.084 4.674L12.707 2.297C12.5195 2.10953 12.2652 2.00421 12 2.00421C11.7348 2.00421 11.4805 2.10953 11.293 2.297L8.916 4.674Z" stroke="#22D3EE" stroke-width="2" stroke-linecap="round" stroke-linejoin="round"/>
</svg>
