<svg width="119" height="28" viewBox="0 0 119 28" fill="none" xmlns="http://www.w3.org/2000/svg">
<g clip-path="url(#clip0_2002_4)">
<path d="M28.2831 22V12.304C28.2831 11.024 28.5925 9.85067 29.2111 8.784C29.8298 7.71733 30.7151 6.87467 31.8671 6.256C33.0405 5.616 34.4485 5.296 36.0911 5.296C36.8805 5.296 37.6058 5.392 38.2671 5.584C38.9498 5.75467 39.5791 6.01067 40.1551 6.352C40.7311 6.69333 41.2325 7.09867 41.6591 7.568H41.6911C42.1391 7.09867 42.6511 6.69333 43.2271 6.352C43.8031 6.01067 44.4325 5.75467 45.1151 5.584C45.7978 5.392 46.5338 5.296 47.3231 5.296C48.9658 5.296 50.3631 5.616 51.5151 6.256C52.6885 6.87467 53.5845 7.71733 54.2031 8.784C54.8218 9.85067 55.1311 11.024 55.1311 12.304V22H50.7471V12.304C50.7471 11.7067 50.5871 11.1627 50.2671 10.672C49.9685 10.1813 49.5631 9.78667 49.0511 9.488C48.5391 9.18933 47.9631 9.04 47.3231 9.04C46.7045 9.04 46.1285 9.18933 45.5951 9.488C45.0831 9.78667 44.6671 10.1813 44.3471 10.672C44.0485 11.1627 43.8991 11.7067 43.8991 12.304V22H39.5151V12.304C39.5151 11.7067 39.3551 11.1627 39.0351 10.672C38.7365 10.1813 38.3311 9.78667 37.8191 9.488C37.3071 9.18933 36.7311 9.04 36.0911 9.04C35.4725 9.04 34.8965 9.18933 34.3631 9.488C33.8511 9.78667 33.4351 10.1813 33.1151 10.672C32.8165 11.1627 32.6671 11.7067 32.6671 12.304V22H28.2831ZM65.4504 22.384C64.4904 22.384 63.6157 22.128 62.8264 21.616C62.0584 21.104 61.525 20.432 61.2264 19.6L56.5544 5.68H61.3224L65.0984 17.808C65.141 17.8933 65.1944 17.9573 65.2584 18C65.3224 18.0427 65.397 18.064 65.4824 18.064C65.5677 18.064 65.6424 18.0427 65.7064 18C65.7917 17.9573 65.845 17.8933 65.8664 17.808L69.6744 5.68H74.3464L69.6744 19.568C69.3757 20.4 68.8317 21.0827 68.0424 21.616C67.2744 22.128 66.4104 22.384 65.4504 22.384ZM76.8159 22V18.256H84.7839C85.0399 18.256 85.2639 18.2027 85.4559 18.096C85.6692 17.9893 85.8292 17.84 85.9359 17.648C86.0639 17.456 86.1279 17.2427 86.1279 17.008C86.1279 16.752 86.0639 16.528 85.9359 16.336C85.8292 16.144 85.6692 15.9947 85.4559 15.888C85.2639 15.76 85.0399 15.696 84.7839 15.696H81.7119C80.6665 15.696 79.7172 15.536 78.8639 15.216C78.0319 14.8747 77.3599 14.3413 76.8479 13.616C76.3572 12.8693 76.1119 11.8987 76.1119 10.704C76.1119 9.78667 76.3359 8.95467 76.7839 8.208C77.2532 7.44 77.8719 6.832 78.6399 6.384C79.4292 5.91467 80.2932 5.68 81.2319 5.68H88.8799V9.424H81.6479C81.3279 9.424 81.0399 9.53067 80.7839 9.744C80.5492 9.95733 80.4319 10.2347 80.4319 10.576C80.4319 10.9173 80.5492 11.2053 80.7839 11.44C81.0185 11.6533 81.3065 11.76 81.6479 11.76H84.7199C85.8932 11.76 86.9065 11.9413 87.7599 12.304C88.6132 12.6453 89.2745 13.1893 89.7439 13.936C90.2132 14.6827 90.4479 15.664 90.4479 16.88C90.4479 17.8187 90.2132 18.6827 89.7439 19.472C89.2745 20.24 88.6452 20.8587 87.8559 21.328C87.0665 21.776 86.1812 22 85.1999 22H76.8159Z" fill="#1F2937"/>
<path d="M15.536 13.293C15.3485 13.4805 15.2432 13.7348 15.2432 14C15.2432 14.2652 15.3485 14.5195 15.536 14.707L17.912 17.084C18.0995 17.2715 18.3538 17.3768 18.619 17.3768C18.8842 17.3768 19.1385 17.2715 19.326 17.084L21.703 14.707C21.8905 14.5195 21.9958 14.2652 21.9958 14C21.9958 13.7348 21.8905 13.4805 21.703 13.293L19.326 10.916C19.1385 10.7285 18.8842 10.6232 18.619 10.6232C18.3538 10.6232 18.0995 10.7285 17.912 10.916L15.536 13.293Z" stroke="#22D3EE" stroke-width="2" stroke-linecap="round" stroke-linejoin="round"/>
<path d="M2.297 13.293C2.10953 13.4805 2.00421 13.7348 2.00421 14C2.00421 14.2652 2.10953 14.5195 2.297 14.707L4.674 17.084C4.86153 17.2715 5.11584 17.3768 5.381 17.3768C5.64616 17.3768 5.90047 17.2715 6.088 17.084L8.465 14.707C8.65247 14.5195 8.75779 14.2652 8.75779 14C8.75779 13.7348 8.65247 13.4805 8.465 13.293L6.088 10.916C5.90047 10.7285 5.64616 10.6232 5.381 10.6232C5.11584 10.6232 4.86153 10.7285 4.674 10.916L2.297 13.293Z" stroke="#22D3EE" stroke-width="2" stroke-linecap="round" stroke-linejoin="round"/>
<path d="M8.916 19.912C8.82302 20.0049 8.74926 20.1152 8.69894 20.2366C8.64862 20.358 8.62271 20.4881 8.62271 20.6195C8.62271 20.7509 8.64862 20.881 8.69894 21.0024C8.74926 21.1238 8.82302 21.2341 8.916 21.327L11.293 23.703C11.4805 23.8905 11.7348 23.9958 12 23.9958C12.2652 23.9958 12.5195 23.8905 12.707 23.703L15.084 21.327C15.177 21.2341 15.2507 21.1238 15.3011 21.0024C15.3514 20.881 15.3773 20.7509 15.3773 20.6195C15.3773 20.4881 15.3514 20.358 15.3011 20.2366C15.2507 20.1152 15.177 20.0049 15.084 19.912L12.707 17.536C12.5195 17.3485 12.2652 17.2432 12 17.2432C11.7348 17.2432 11.4805 17.3485 11.293 17.536L8.916 19.912Z" stroke="#22D3EE" stroke-width="2" stroke-linecap="round" stroke-linejoin="round"/>
<path d="M8.916 6.674C8.72853 6.86153 8.62321 7.11584 8.62321 7.381C8.62321 7.64616 8.72853 7.90047 8.916 8.088L11.293 10.464C11.4805 10.6515 11.7348 10.7568 12 10.7568C12.2652 10.7568 12.5195 10.6515 12.707 10.464L15.084 8.088C15.2715 7.90047 15.3768 7.64616 15.3768 7.381C15.3768 7.11584 15.2715 6.86153 15.084 6.674L12.707 4.297C12.5195 4.10953 12.2652 4.00421 12 4.00421C11.7348 4.00421 11.4805 4.10953 11.293 4.297L8.916 6.674Z" stroke="#22D3EE" stroke-width="2" stroke-linecap="round" stroke-linejoin="round"/>
<rect x="97" y="5" width="17" height="17" rx="4" stroke="#4B5563" stroke-width="2"/>
<path d="M105.37 9.27273H107.475V14.902C107.475 15.5526 107.32 16.1193 107.011 16.6023C106.701 17.0824 106.269 17.4545 105.715 17.7188C105.161 17.9801 104.518 18.1108 103.785 18.1108C103.043 18.1108 102.396 17.9801 101.842 17.7188C101.288 17.4545 100.857 17.0824 100.55 16.6023C100.244 16.1193 100.09 15.5526 100.09 14.902V9.27273H102.2V14.7188C102.2 15.0199 102.265 15.2884 102.396 15.5241C102.529 15.7599 102.715 15.9446 102.954 16.0781C103.192 16.2116 103.469 16.2784 103.785 16.2784C104.1 16.2784 104.376 16.2116 104.612 16.0781C104.85 15.9446 105.036 15.7599 105.17 15.5241C105.303 15.2884 105.37 15.0199 105.37 14.7188V9.27273ZM110.907 9.27273V18H108.797V9.27273H110.907Z" fill="#4B5563"/>
</g>
<defs>
<clipPath id="clip0_2002_4">
<rect width="119" height="28" fill="white"/>
</clipPath>
</defs>
</svg>
