<svg width="122" height="28" viewBox="0 0 122 28" fill="none" xmlns="http://www.w3.org/2000/svg">
<g clip-path="url(#clip0_2002_4)">
<rect width="122" height="28" fill="white"/>
<path d="M31.2831 22V12.304C31.2831 11.024 31.5925 9.85067 32.2111 8.784C32.8298 7.71733 33.7151 6.87467 34.8671 6.256C36.0405 5.616 37.4485 5.296 39.0911 5.296C39.8805 5.296 40.6058 5.392 41.2671 5.584C41.9498 5.75467 42.5791 6.01067 43.1551 6.352C43.7311 6.69333 44.2325 7.09867 44.6591 7.568H44.6911C45.1391 7.09867 45.6511 6.69333 46.2271 6.352C46.8031 6.01067 47.4325 5.75467 48.1151 5.584C48.7978 5.392 49.5338 5.296 50.3231 5.296C51.9658 5.296 53.3631 5.616 54.5151 6.256C55.6885 6.87467 56.5845 7.71733 57.2031 8.784C57.8218 9.85067 58.1311 11.024 58.1311 12.304V22H53.7471V12.304C53.7471 11.7067 53.5871 11.1627 53.2671 10.672C52.9685 10.1813 52.5631 9.78667 52.0511 9.488C51.5391 9.18933 50.9631 9.04 50.3231 9.04C49.7045 9.04 49.1285 9.18933 48.5951 9.488C48.0831 9.78667 47.6671 10.1813 47.3471 10.672C47.0485 11.1627 46.8991 11.7067 46.8991 12.304V22H42.5151V12.304C42.5151 11.7067 42.3551 11.1627 42.0351 10.672C41.7365 10.1813 41.3311 9.78667 40.8191 9.488C40.3071 9.18933 39.7311 9.04 39.0911 9.04C38.4725 9.04 37.8965 9.18933 37.3631 9.488C36.8511 9.78667 36.4351 10.1813 36.1151 10.672C35.8165 11.1627 35.6671 11.7067 35.6671 12.304V22H31.2831ZM68.4504 22.384C67.4904 22.384 66.6157 22.128 65.8264 21.616C65.0584 21.104 64.525 20.432 64.2264 19.6L59.5544 5.68H64.3224L68.0984 17.808C68.141 17.8933 68.1944 17.9573 68.2584 18C68.3224 18.0427 68.397 18.064 68.4824 18.064C68.5677 18.064 68.6424 18.0427 68.7064 18C68.7917 17.9573 68.845 17.8933 68.8664 17.808L72.6744 5.68H77.3464L72.6744 19.568C72.3757 20.4 71.8317 21.0827 71.0424 21.616C70.2744 22.128 69.4104 22.384 68.4504 22.384ZM79.8159 22V18.256H87.7839C88.0399 18.256 88.2639 18.2027 88.4559 18.096C88.6692 17.9893 88.8292 17.84 88.9359 17.648C89.0639 17.456 89.1279 17.2427 89.1279 17.008C89.1279 16.752 89.0639 16.528 88.9359 16.336C88.8292 16.144 88.6692 15.9947 88.4559 15.888C88.2639 15.76 88.0399 15.696 87.7839 15.696H84.7119C83.6665 15.696 82.7172 15.536 81.8639 15.216C81.0319 14.8747 80.3599 14.3413 79.8479 13.616C79.3572 12.8693 79.1119 11.8987 79.1119 10.704C79.1119 9.78667 79.3359 8.95467 79.7839 8.208C80.2532 7.44 80.8719 6.832 81.6399 6.384C82.4292 5.91467 83.2932 5.68 84.2319 5.68H91.8799V9.424H84.6479C84.3279 9.424 84.0399 9.53067 83.7839 9.744C83.5492 9.95733 83.4319 10.2347 83.4319 10.576C83.4319 10.9173 83.5492 11.2053 83.7839 11.44C84.0185 11.6533 84.3065 11.76 84.6479 11.76H87.7199C88.8932 11.76 89.9065 11.9413 90.7599 12.304C91.6132 12.6453 92.2745 13.1893 92.7439 13.936C93.2132 14.6827 93.4479 15.664 93.4479 16.88C93.4479 17.8187 93.2132 18.6827 92.7439 19.472C92.2745 20.24 91.6452 20.8587 90.8559 21.328C90.0665 21.776 89.1812 22 88.1999 22H79.8159Z" fill="#4B5563"/>
<g clip-path="url(#clip1_2002_4)">
<path d="M15.2413 13.3519C15.0695 13.5238 14.9729 13.7569 14.9729 14C14.9729 14.2431 15.0695 14.4762 15.2413 14.6481L17.4193 16.827C17.5912 16.9988 17.8243 17.0954 18.0674 17.0954C18.3105 17.0954 18.5436 16.9988 18.7155 16.827L20.8944 14.6481C21.0663 14.4762 21.1628 14.2431 21.1628 14C21.1628 13.7569 21.0663 13.5238 20.8944 13.3519L18.7155 11.173C18.5436 11.0012 18.3105 10.9046 18.0674 10.9046C17.8243 10.9046 17.5912 11.0012 17.4193 11.173L15.2413 13.3519Z" stroke="#22D3EE" stroke-width="2" stroke-linecap="round" stroke-linejoin="round"/>
<path d="M3.10558 13.3519C2.93373 13.5238 2.8372 13.7569 2.8372 14C2.8372 14.2431 2.93373 14.4762 3.10558 14.6481L5.2845 16.827C5.4564 16.9988 5.68952 17.0954 5.93258 17.0954C6.17565 17.0954 6.40877 16.9988 6.58067 16.827L8.75958 14.6481C8.93143 14.4762 9.02797 14.2431 9.02797 14C9.02797 13.7569 8.93143 13.5238 8.75958 13.3519L6.58067 11.173C6.40877 11.0012 6.17565 10.9046 5.93258 10.9046C5.68952 10.9046 5.4564 11.0012 5.2845 11.173L3.10558 13.3519Z" stroke="#22D3EE" stroke-width="2" stroke-linecap="round" stroke-linejoin="round"/>
<path d="M9.173 19.4193C9.08777 19.5045 9.02016 19.6056 8.97403 19.7168C8.9279 19.8281 8.90415 19.9474 8.90415 20.0679C8.90415 20.1883 8.9279 20.3076 8.97403 20.4189C9.02016 20.5302 9.08777 20.6313 9.173 20.7164L11.3519 22.8944C11.5238 23.0663 11.7569 23.1628 12 23.1628C12.2431 23.1628 12.4762 23.0663 12.6481 22.8944L14.827 20.7164C14.9122 20.6313 14.9798 20.5302 15.026 20.4189C15.0721 20.3076 15.0958 20.1883 15.0958 20.0679C15.0958 19.9474 15.0721 19.8281 15.026 19.7168C14.9798 19.6056 14.9122 19.5045 14.827 19.4193L12.6481 17.2413C12.4762 17.0695 12.2431 16.9729 12 16.9729C11.7569 16.9729 11.5238 17.0695 11.3519 17.2413L9.173 19.4193Z" stroke="#22D3EE" stroke-width="2" stroke-linecap="round" stroke-linejoin="round"/>
<path d="M9.173 7.2845C9.00115 7.4564 8.90461 7.68952 8.90461 7.93258C8.90461 8.17565 9.00115 8.40877 9.173 8.58067L11.3519 10.7587C11.5238 10.9305 11.7569 11.0271 12 11.0271C12.2431 11.0271 12.4762 10.9305 12.6481 10.7587L14.827 8.58067C14.9988 8.40877 15.0954 8.17565 15.0954 7.93258C15.0954 7.68952 14.9988 7.4564 14.827 7.2845L12.6481 5.10558C12.4762 4.93373 12.2431 4.8372 12 4.8372C11.7569 4.8372 11.5238 4.93373 11.3519 5.10558L9.173 7.2845Z" stroke="#22D3EE" stroke-width="2" stroke-linecap="round" stroke-linejoin="round"/>
</g>
<rect x="101.75" y="4.75" width="18.5" height="18.5" rx="4.25" stroke="#4B5563" stroke-width="1.5"/>
<path d="M107.123 18.655C106.553 18.355 106.118 17.95 105.803 17.41C105.473 16.87 105.323 16.27 105.323 15.58V8.65H107.288V15.52C107.288 16.12 107.438 16.57 107.753 16.9C108.053 17.23 108.488 17.38 109.028 17.38C109.568 17.38 109.988 17.23 110.303 16.9C110.618 16.57 110.783 16.12 110.783 15.52V8.65H112.763V15.58C112.763 16.27 112.598 16.87 112.268 17.41C111.938 17.95 111.503 18.355 110.933 18.655C110.363 18.955 109.733 19.09 109.028 19.09C108.323 19.09 107.693 18.955 107.123 18.655ZM114.626 8.65H116.591V19H114.626V8.65Z" fill="#4B5563"/>
</g>
<defs>
<clipPath id="clip0_2002_4">
<rect width="122" height="28" fill="white"/>
</clipPath>
<clipPath id="clip1_2002_4">
<rect width="22" height="22" fill="white" transform="translate(1 3)"/>
</clipPath>
</defs>
</svg>
